<?xml version="1.0" standalone="no"?><!DOCTYPE svg PUBLIC "-//W3C//DTD SVG 1.1//EN" "http://www.w3.org/Graphics/SVG/1.1/DTD/svg11.dtd"><svg class="icon" style="" viewBox="0 0 1063 1024" version="1.1" xmlns="http://www.w3.org/2000/svg" p-id="2799" xmlns:xlink="http://www.w3.org/1999/xlink" width="207.6171875" height="200"><defs><style type="text/css"><![CDATA[

]]></style></defs><path d="M551.477895 377.263158c36.998737 0 67.260632-30.315789 67.260632-67.368421s-30.261895-67.368421-67.260632-67.368421-67.260632 30.315789-67.260632 67.368421S514.479158 377.263158 551.477895 377.263158L551.477895 377.263158zM551.477895 781.473684c36.998737 0 67.260632-30.315789 67.260632-67.368421l0-202.105263c0-37.052632-30.261895-67.368421-67.260632-67.368421s-67.260632 30.315789-67.260632 67.368421L484.217263 714.105263C484.217263 751.157895 514.479158 781.473684 551.477895 781.473684L551.477895 781.473684zM551.477895 1024c281.734737 0 511.110737-229.753263 511.110737-512 0-282.246737-229.349053-512-511.110737-512-281.761684 0-511.110737 229.753263-511.110737 512C40.367158 794.246737 269.743158 1024 551.477895 1024L551.477895 1024zM551.477895 74.105263c241.098105 0 437.140211 196.365474 437.140211 437.894737 0 241.502316-196.042105 437.894737-437.140211 437.894737-241.098105 0-437.140211-196.365474-437.140211-437.894737C114.337684 270.470737 310.379789 74.105263 551.477895 74.105263L551.477895 74.105263zM551.477895 74.105263" p-id="2800"></path></svg>