<svg class="icon" style="width: 200; height: 200;vertical-align: middle;fill: currentColor;overflow: hidden;" viewBox="0 0 1024 1024" version="1.1" xmlns="http://www.w3.org/2000/svg" p-id="7973"><path d="M772.100388 317.490981 249.546008 317.490981c-10.3006 0-18.639522 8.619308-18.639522 19.201318 0 10.583033 8.338922 19.149129 18.639522 19.149129l522.55438 0c10.301623 0 18.640546-8.623401 18.640546-19.149129S782.402011 317.490981 772.100388 317.490981L772.100388 317.490981zM790.73991 220.35978 230.905462 220.35978c-10.357905 0-18.700921 8.56405-18.700921 19.144012 0 10.582009 8.344039 19.088754 18.700921 19.088754l559.834448 0c10.357905 0 18.699897-8.506744 18.699897-19.145036C809.440831 228.922806 801.098839 220.35978 790.73991 220.35978L790.73991 220.35978zM948.839695 420.110173l-73.615625-275.162944c-0.168846-0.673335-0.336668-1.227967-0.618077-1.902326-11.590989-30.286794-28.498054-50.441832-73.450872-50.441832l-581.89693 1.62194c-37.285185 0-59.173704 15.059997-73.278957 50.16247-0.281409 0.784876-0.561795 1.571798-0.730641 2.295276l-73.002664 280.984532c-5.65172 5.54325-9.292644 12.541641-9.292644 20.654412l0 440.314331c0 21.051455 24.576745 41.425482 45.067428 41.425482l821.169455 0c20.490683 0 29.501918-20.374026 29.501918-41.425482L958.692087 448.321702C958.692087 436.06147 955.500395 426.209078 948.839695 420.110173L948.839695 420.110173zM734.758921 730.984457 286.887474 730.984457 286.887474 619.017362l447.871447 0L734.758921 730.984457 734.758921 730.984457zM678.772816 451.065186c0 0-39.58046 0.506537-59.117422 0.506537L411.338904 451.571722c-19.537985 0-68.464301-0.506537-68.464301-0.506537L118.939391 451.065186l62.029752-293.239648c7.613398-18.644639 14.83487-25.25008 38.346353-25.25008l581.951165-1.677199c25.864064 0 31.072693 6.603395 38.294165 25.191752l63.147202 294.974152L678.772816 451.064162 678.772816 451.065186zM678.772816 451.065186" p-id="7974"></path></svg>