<svg class="icon" style="width: 200; height: 200;vertical-align: middle;fill: currentColor;overflow: hidden;" viewBox="0 0 1024 1024" version="1.1" xmlns="http://www.w3.org/2000/svg" p-id="8800"><path d="M590.718976 493.705216l315.467776 0c29.55776 0 53.517312-23.827456 53.517312-53.223424L959.704064 119.165952c0-29.389824-23.958528-53.223424-53.517312-53.223424L590.718976 65.942528c-29.554688 0-53.505024 23.8336-53.505024 53.223424l0 321.316864C537.213952 469.87776 561.163264 493.705216 590.718976 493.705216zM574.56128 119.165952c0-8.774656 7.246848-15.915008 16.156672-15.915008l315.467776 0c8.909824 0 16.172032 7.141376 16.172032 15.915008l0 321.316864c0 8.773632-7.262208 15.915008-16.172032 15.915008L590.718976 456.397824c-8.909824 0-16.156672-7.141376-16.156672-15.915008L574.562304 119.165952z" p-id="8801"></path><path d="M590.718976 959.007744l315.467776 0c29.55776 0 53.517312-23.840768 53.517312-53.24288L959.704064 584.46336c0-29.398016-23.958528-53.230592-53.517312-53.230592L590.718976 531.232768c-29.554688 0-53.505024 23.832576-53.505024 53.230592l0 321.301504C537.213952 935.166976 561.163264 959.007744 590.718976 959.007744z" p-id="8802"></path><path d="M119.185408 959.007744l315.47904 0c29.554688 0 53.505024-23.840768 53.505024-53.24288L488.169472 584.46336c0-29.398016-23.950336-53.230592-53.505024-53.230592L119.185408 531.232768c-29.5424 0-53.506048 23.832576-53.506048 53.230592l0 321.301504C65.67936 935.166976 89.643008 959.007744 119.185408 959.007744zM103.027712 584.46336c0-8.7808 7.258112-15.922176 16.157696-15.922176l315.47904 0c8.910848 0 16.157696 7.141376 16.157696 15.922176l0 321.301504c0 8.793088-7.246848 15.934464-16.157696 15.934464L119.185408 921.699328c-8.89856 0-16.157696-7.141376-16.157696-15.934464L103.027712 584.46336z" p-id="8803"></path><path d="M119.185408 492.752896l315.47904 0c29.554688 0 53.505024-23.8336 53.505024-53.230592L488.169472 118.213632c0-29.396992-23.950336-53.229568-53.505024-53.229568L119.185408 64.984064c-29.5424 0-53.506048 23.8336-53.506048 53.229568l0 321.309696C65.67936 468.919296 89.643008 492.752896 119.185408 492.752896zM103.027712 118.213632c0-8.7808 7.258112-15.921152 16.157696-15.921152l315.47904 0c8.910848 0 16.157696 7.141376 16.157696 15.921152l0 321.309696c0 8.7808-7.246848 15.921152-16.157696 15.921152L119.185408 455.44448c-8.89856 0-16.157696-7.140352-16.157696-15.921152L103.027712 118.213632z" p-id="8804"></path></svg>