<svg class="icon" style="width: 200; height: 200;vertical-align: middle;fill: currentColor;overflow: hidden;" viewBox="0 0 1024 1024" version="1.1" xmlns="http://www.w3.org/2000/svg" p-id="4101"><path d="M511.99079 891.2383l-0.031722 0c-11.630898 0-35.823903 0-240.318344-337.326748-24.801872-43.462884-37.776372-92.211145-37.776372-141.410684 0-155.464771 124.748189-281.94951 278.109042-281.94951 153.37825 0 278.162254 126.483716 278.162254 281.94951 0 49.503461-12.960173 98.270141-37.501102 141.024897l-4.943592 7.832386C547.814694 891.202485 523.619642 891.219881 511.99079 891.2383zM512.072655 299.549354c-61.46284 0-111.478977 50.64854-111.478977 112.903419s50.016137 112.909559 111.478977 112.909559c61.494563 0 111.542422-50.653657 111.542422-112.909559S573.568241 299.549354 512.072655 299.549354z" p-id="4102"></path></svg>