<svg class="icon" style="width: 200; height: 200;vertical-align: middle;fill: currentColor;overflow: hidden;" viewBox="0 0 1024 1024" version="1.1" xmlns="http://www.w3.org/2000/svg" p-id="1595"><path d="M82 720c-38 0-72 32-72 70s34 72 72 72 70-34 70-72S120 720 82 720z" p-id="1596" fill="#2c2c2c"></path><path d="M82 376c-38 0-72 32-72 70s34 70 72 70 70-32 70-70S120 376 82 376z" p-id="1597" fill="#2c2c2c"></path><path d="M338 166l606 0c36 0 66-28 66-64s-30-66-66-66L338 36c-36 0-66 30-66 66S302 166 338 166z" p-id="1598" fill="#2c2c2c"></path><path d="M82 30C44 30 10 64 10 102s34 70 72 70 70-32 70-70S120 30 82 30z" p-id="1599" fill="#2c2c2c"></path><path d="M944 380 338 380c-36 0-66 30-66 66s30 66 66 66l606 0c36 0 66-30 66-66S980 380 944 380z" p-id="1600" fill="#2c2c2c"></path><path d="M944 724 338 724c-36 0-66 30-66 66s30 66 66 66l606 0c36 0 66-30 66-66S980 724 944 724z" p-id="1601" fill="#2c2c2c"></path></svg>