<svg class="icon" style="width: 1.200; height: 200;vertical-align: middle;fill: currentColor;overflow: hidden;" viewBox="0 0 1027 1024" version="1.1" xmlns="http://www.w3.org/2000/svg" p-id="2474"><path d="M96.34912 0c-53.082424 0-96.34912 43.266696-96.34912 96.219966l0 288.530744c0 52.824116 30.609573 126.829539 68.193479 164.284291L516.10065 995.908936c37.454752 37.454752 98.803052 37.454752 136.257804 0l345.616952-344.842026c37.454752-37.454752 37.454752-98.673898 0-136.12865l-447.778016-446.873936c-37.454752-37.454752-111.58933-68.064325-164.542599-68.064325L96.34912 0 96.34912 0zM224.470202 320.044397c-53.082424 0-96.219966-43.008387-96.219966-95.961657 0-52.95327 43.137542-95.961657 96.219966-95.961657 53.082424 0 96.219966 43.008387 96.219966 95.961657C320.561014 277.036009 277.552627 320.044397 224.470202 320.044397L224.470202 320.044397z" p-id="2475"></path></svg>